<?xml version="1.0" standalone="no"?>
<!DOCTYPE svg PUBLIC "-//W3C//DTD SVG 20010904//EN"
 "http://www.w3.org/TR/2001/REC-SVG-20010904/DTD/svg10.dtd">
<svg version="1.0" xmlns="http://www.w3.org/2000/svg"
 width="1110.000000pt" height="665.000000pt" viewBox="0 0 1110.000000 665.000000"
 preserveAspectRatio="xMidYMid meet">

<g transform="translate(0.000000,665.000000) scale(0.100000,-0.100000)"
fill="#000000" stroke="none">
<path d="M9650 5573 c-31 -11 -59 -46 -64 -82 -4 -20 -13 -99 -21 -176 -8 -77
-53 -498 -100 -935 -138 -1279 -203 -1895 -216 -2049 -13 -140 -13 -144 7
-160 14 -11 126 -31 394 -69 l375 -54 22 27 c31 35 41 75 127 480 41 193 102
476 136 630 33 154 76 352 95 440 18 88 58 275 89 415 30 140 89 415 131 610
41 195 87 405 100 466 14 61 25 132 25 158 0 117 -90 181 -290 206 -52 6 -232
31 -399 56 -288 42 -376 50 -411 37z"/>
<path d="M6395 5520 c-691 -5 -668 -3 -715 -60 -32 -39 -101 -215 -93 -236 4
-12 3 -15 -5 -10 -11 6 -15 -5 -11 -30 0 -4 -4 -10 -9 -13 -15 -9 -63 -142
-55 -154 4 -6 1 -7 -7 -2 -10 6 -12 4 -7 -8 3 -10 2 -17 -2 -17 -5 0 -7 -10
-4 -22 4 -19 3 -20 -6 -8 -11 16 -11 16 -15 -32 -1 -7 -4 -15 -7 -18 -13 -10
-79 -192 -73 -201 3 -5 1 -9 -4 -9 -12 0 -105 -247 -97 -260 3 -5 0 -10 -7
-10 -10 0 -10 -2 -1 -8 8 -5 9 -13 3 -22 -8 -13 -10 -13 -10 -1 0 8 -2 12 -5
9 -3 -3 -1 -16 4 -29 6 -15 10 -18 10 -8 1 9 8 22 16 29 12 10 15 10 15 -3 0
-9 -5 -19 -10 -22 -6 -4 -17 -21 -25 -38 -13 -27 -14 -28 -10 -7 2 14 -1 32
-6 40 -9 13 -10 12 -5 -2 3 -10 1 -18 -5 -18 -6 0 -7 -5 -4 -10 10 -15 -5 -51
-17 -44 -7 5 -9 1 -5 -9 3 -10 3 -17 -2 -17 -5 0 -11 -8 -14 -17 -3 -10 -51
-141 -106 -292 -55 -150 -98 -277 -95 -282 3 -5 1 -9 -4 -9 -5 0 -19 -26 -30
-57 -11 -32 -50 -139 -86 -238 -82 -229 -81 -224 -67 -205 12 17 15 2 5 -25
-6 -13 -9 -14 -16 -3 -6 9 -7 5 -3 -11 6 -18 4 -22 -6 -15 -12 6 -12 5 0 -9
11 -14 11 -20 0 -34 -13 -16 -12 -17 4 -4 15 12 17 10 17 -23 0 -23 -4 -35
-12 -33 -7 1 -12 -4 -10 -11 1 -8 -2 -11 -8 -7 -5 3 -8 18 -5 33 3 15 2 21 -1
14 -3 -6 -9 -10 -13 -8 -9 6 -8 -47 1 -54 4 -3 3 -12 -1 -19 -7 -10 -11 -8
-16 10 -6 19 -13 7 -41 -71 -18 -51 -31 -97 -29 -101 3 -4 0 -9 -6 -11 -6 -2
-12 -15 -12 -30 -1 -14 -6 -24 -10 -21 -4 2 -5 -8 -2 -24 5 -21 4 -24 -4 -13
-6 9 -11 10 -11 3 0 -6 -3 -20 -6 -30 -5 -15 -4 -16 6 -3 10 13 11 12 6 -3 -3
-10 -6 -21 -6 -23 0 -3 -5 -2 -12 2 -8 5 -9 2 -5 -9 3 -10 2 -17 -2 -17 -12 0
-42 -90 -35 -101 3 -5 1 -9 -4 -9 -12 0 -44 -89 -36 -101 3 -5 0 -9 -6 -9 -7
0 -10 -7 -6 -15 3 -8 1 -15 -5 -15 -6 0 -9 -6 -7 -12 3 -7 -1 -19 -9 -26 -7
-7 -13 -19 -13 -25 0 -7 4 -6 10 3 6 9 10 10 10 3 0 -7 -7 -16 -15 -20 -15 -9
-69 -153 -57 -153 4 0 1 -4 -7 -9 -8 -5 -14 -23 -14 -40 0 -17 -3 -29 -6 -26
-8 8 -42 -88 -36 -103 3 -8 0 -10 -7 -6 -8 5 -9 2 -5 -9 3 -10 3 -17 -1 -17
-4 0 -7 -20 -6 -45 2 -40 0 -44 -12 -28 -12 16 -13 16 -8 -7 2 -14 1 -19 -2
-11 -4 9 -15 -10 -30 -49 -12 -35 -21 -67 -18 -72 3 -4 0 -8 -6 -8 -7 0 -9 -8
-5 -21 5 -16 4 -19 -6 -14 -9 6 -11 3 -6 -8 4 -10 2 -17 -4 -17 -6 0 -8 -8 -5
-17 4 -10 4 -14 -1 -10 -9 10 -45 -92 -37 -104 3 -5 1 -9 -4 -9 -9 0 -25 -40
-26 -65 -1 -5 -4 -12 -7 -15 -4 -3 -9 -16 -13 -30 -6 -19 -5 -21 3 -10 7 9 11
10 11 3 0 -7 -7 -16 -16 -21 -9 -5 -17 -21 -17 -35 -1 -15 -5 -27 -9 -27 -3 0
-13 -21 -22 -47 -14 -42 -14 -53 -1 -88 8 -22 14 -47 15 -56 0 -9 7 -22 15
-29 9 -7 14 -19 11 -26 -3 -7 5 -16 17 -20 21 -7 21 -8 -8 -20 -28 -12 -27
-13 25 -9 40 4 48 2 30 -4 -39 -14 1277 -14 1341 0 107 23 105 19 414 829 128
337 147 380 165 390 11 6 216 11 522 13 547 4 611 9 898 67 426 87 710 228
961 479 136 137 217 248 299 412 200 398 259 949 143 1349 -152 528 -640 872
-1353 954 -166 19 -401 22 -1225 16z m1107 -698 c7 -7 26 -12 43 -12 17 0 40
-7 51 -15 10 -8 26 -15 35 -15 8 0 38 -11 65 -25 27 -14 54 -25 60 -25 6 0 19
-9 29 -20 10 -11 23 -20 30 -20 6 0 22 -11 35 -25 13 -14 28 -25 34 -25 15 0
116 -93 116 -107 0 -6 16 -25 35 -42 19 -17 35 -37 35 -46 0 -8 5 -15 10 -15
6 0 10 -6 10 -13 0 -8 9 -22 20 -32 11 -10 20 -26 20 -36 0 -10 5 -21 10 -24
6 -4 8 -11 5 -16 -4 -5 -1 -9 4 -9 6 0 11 -11 11 -24 0 -14 5 -28 10 -31 6 -3
10 -24 10 -45 0 -21 5 -40 12 -42 8 -3 12 -61 12 -211 0 -146 -4 -211 -12
-219 -7 -7 -12 -24 -12 -39 0 -15 -4 -31 -10 -34 -5 -3 -10 -17 -10 -31 0 -13
-4 -24 -10 -24 -5 0 -10 -9 -10 -21 0 -11 -9 -33 -20 -49 -11 -15 -17 -29 -15
-32 3 -3 -4 -13 -15 -23 -11 -10 -20 -23 -20 -29 0 -6 -9 -17 -20 -24 -12 -7
-19 -16 -16 -21 10 -15 -236 -231 -263 -231 -5 0 -14 -7 -21 -15 -7 -8 -21
-15 -31 -15 -18 0 -57 -17 -69 -30 -3 -3 -32 -14 -65 -24 -33 -10 -71 -24 -84
-30 -34 -15 -573 -15 -592 0 -8 7 -30 15 -49 18 -19 4 -62 20 -95 36 -33 16
-81 38 -106 49 -25 11 -52 27 -60 37 -7 9 -21 19 -30 23 -25 10 -179 153 -173
162 3 5 -4 14 -16 21 -11 7 -20 21 -20 31 0 10 -7 20 -16 24 -14 5 -31 35 -32
57 0 5 -4 12 -9 15 -14 11 -33 50 -33 71 0 11 -4 20 -10 20 -5 0 -10 15 -10
33 0 18 -6 39 -12 46 -10 9 -13 73 -13 248 0 180 3 237 13 241 6 2 12 19 12
37 0 18 3 35 8 37 4 2 25 39 47 83 22 44 43 82 47 83 5 2 8 11 8 19 0 8 11 24
25 35 14 11 25 25 25 31 0 14 90 97 105 97 6 0 24 14 40 30 16 17 34 30 41 30
6 0 17 7 24 15 7 9 33 25 56 35 24 11 46 24 49 30 3 5 14 10 24 10 10 0 33 8
52 17 40 20 43 21 89 29 19 3 44 9 55 14 34 16 82 18 317 16 164 -1 231 -5
240 -14z m-2662 -1706 c0 -17 -14 -29 -23 -20 -8 8 3 34 14 34 5 0 9 -6 9 -14z"/>
<path d="M7138 4707 c-9 -9 -18 -13 -22 -10 -3 4 -6 1 -6 -5 0 -6 -16 -23 -35
-37 -31 -24 -43 -27 -130 -28 l-97 -2 -34 -37 c-20 -22 -34 -48 -34 -63 0 -18
-21 -46 -72 -97 -40 -40 -66 -63 -59 -53 14 19 14 19 -3 4 -19 -18 -23 -46
-11 -95 6 -29 4 -32 -37 -52 -57 -26 -66 -39 -69 -89 -2 -23 -6 -40 -10 -37
-4 2 -10 -3 -13 -12 -13 -34 -5 -65 24 -90 29 -26 29 -27 13 -58 -10 -17 -16
-35 -15 -39 1 -5 -2 -6 -8 -2 -5 3 -15 -6 -20 -20 -19 -49 -12 -76 30 -117 39
-39 42 -40 95 -36 53 4 57 3 73 -24 14 -25 22 -28 66 -28 41 0 55 -5 79 -27
26 -26 34 -28 94 -25 l66 2 44 -45 c23 -25 55 -69 69 -97 25 -49 26 -59 21
-152 -4 -76 -10 -105 -25 -125 -21 -29 -76 -49 -137 -50 -22 -1 -45 -5 -52 -9
-6 -4 133 -7 310 -8 303 0 317 1 233 13 -49 7 -100 20 -112 28 -25 16 -36 76
-38 196 0 63 3 71 54 155 76 127 84 134 144 135 36 0 45 3 31 8 -11 5 -27 6
-35 4 -8 -3 -1 4 16 15 18 11 35 26 40 34 4 7 -5 3 -20 -10 -16 -12 -40 -22
-53 -22 -24 0 -25 3 -19 38 l6 37 -25 -30 c-14 -16 -23 -37 -19 -45 3 -8 2
-11 -2 -7 -8 8 -40 -33 -36 -46 1 -5 -1 -6 -6 -3 -5 3 -24 -10 -42 -29 -19
-19 -40 -35 -47 -35 -12 0 -26 42 -38 117 -5 29 -13 44 -26 48 -30 10 -49 34
-49 63 0 31 39 84 47 65 2 -7 15 -13 28 -13 17 0 25 -7 28 -22 l4 -23 2 23 c1
30 21 28 21 -2 0 -19 8 -26 44 -36 25 -7 50 -10 58 -7 7 3 2 6 -12 6 -30 2
-66 21 -38 21 11 0 15 5 12 14 -4 10 2 14 20 12 14 0 26 -7 26 -13 0 -7 8 -13
18 -13 14 0 15 -2 2 -10 -8 -5 -11 -10 -6 -10 5 0 17 7 27 16 20 18 91 26 111
12 9 -6 5 -7 -12 -3 -19 5 -22 4 -10 -4 8 -6 22 -11 31 -11 19 0 19 -35 -1
-53 -11 -9 -11 -7 0 8 14 18 14 19 -2 6 -17 -12 -16 -15 4 -44 12 -17 16 -27
8 -22 -8 5 -11 4 -6 -3 3 -6 1 -12 -6 -15 -7 -2 -4 -3 7 -1 11 1 29 -4 39 -12
38 -28 110 -12 118 26 5 27 31 39 70 33 51 -8 85 3 104 33 19 28 21 89 3 110
-8 10 -7 19 5 36 9 12 16 27 16 33 0 5 -4 4 -9 -4 -6 -9 -10 1 -12 32 -2 25
-1 43 4 40 4 -2 7 -12 8 -21 0 -11 3 -12 6 -4 2 6 -7 26 -21 43 -30 35 -31 44
-11 79 34 59 9 132 -57 166 -27 14 -30 19 -27 62 2 26 0 57 -5 69 -11 33 -62
65 -125 78 -52 10 -56 13 -62 44 -10 46 -29 62 -83 68 -31 4 -46 10 -46 20 0
26 -30 72 -52 80 -13 4 -50 8 -83 9 -33 1 -96 5 -141 9 -66 6 -83 5 -96 -8z
m-75 -863 c-2 -7 11 -30 31 -51 l36 -38 -6 46 c-5 37 -3 47 10 52 9 4 15 3 15
-1 -3 -18 2 -32 17 -46 14 -15 14 -17 0 -32 -20 -19 -20 -18 0 -56 16 -31 16
-129 1 -145 -9 -9 -50 14 -96 54 -39 33 -55 35 -44 5 5 -14 2 -13 -16 3 -13
11 -26 18 -30 15 -17 -13 -10 41 8 59 12 12 17 21 13 21 -5 0 -9 7 -9 15 0 9
6 14 14 11 28 -11 11 4 -25 23 -21 11 -44 27 -52 36 -11 14 -8 15 37 14 27 -1
58 3 69 10 17 11 17 11 -6 6 -18 -5 -21 -4 -11 4 20 13 50 10 44 -5z"/>
<path d="M7030 3703 c0 -15 -2 -16 -10 -3 -8 13 -10 12 -10 -2 0 -10 7 -18 15
-18 8 0 15 9 15 20 0 11 -2 20 -5 20 -3 0 -5 -8 -5 -17z"/>
<path d="M7079 4673 c-13 -16 -12 -17 4 -4 16 13 21 21 13 21 -2 0 -10 -8 -17
-17z"/>
<path d="M7253 3805 c0 -27 2 -38 4 -22 2 15 2 37 0 50 -2 12 -4 0 -4 -28z"/>
<path d="M7281 3714 c0 -11 3 -14 6 -6 3 7 2 16 -1 19 -3 4 -6 -2 -5 -13z"/>
<path d="M1675 5505 c-152 -25 -1477 -225 -1488 -225 -13 0 -8 -110 6 -115 6
-3 80 -11 162 -20 173 -17 235 -33 293 -75 85 -61 96 -87 215 -475 26 -82 112
-364 193 -625 80 -261 170 -554 199 -650 29 -96 92 -301 140 -455 110 -358
111 -360 325 -1060 242 -788 233 -764 298 -793 33 -15 94 -17 567 -17 475 0
536 2 586 17 83 26 91 38 289 468 63 137 510 1093 653 1395 49 105 135 289
192 410 56 121 207 438 335 705 128 267 254 530 280 585 26 55 121 249 210
430 224 456 228 469 168 480 -18 3 -335 5 -703 3 -623 -3 -673 -4 -698 -21
-16 -10 -45 -53 -71 -105 -43 -86 -58 -120 -234 -522 -49 -113 -129 -295 -177
-405 -49 -110 -103 -234 -121 -275 -17 -41 -65 -149 -104 -240 -40 -91 -91
-210 -115 -265 -23 -55 -92 -212 -152 -350 -60 -137 -132 -302 -158 -365 -58
-139 -61 -143 -94 -135 -14 4 -27 7 -28 8 -1 1 -61 234 -133 517 -200 780
-251 980 -330 1285 -40 154 -101 393 -136 530 -68 267 -86 307 -153 352 -39
27 -89 28 -216 8z"/>
<path d="M4351 1894 c0 -11 3 -14 6 -6 3 7 2 16 -1 19 -3 4 -6 -2 -5 -13z"/>
<path d="M9411 1795 c-310 -58 -500 -373 -400 -662 68 -200 251 -336 469 -350
268 -18 515 164 561 412 17 93 6 217 -27 300 -22 57 -42 85 -103 146 -42 42
-96 86 -121 99 -120 61 -249 80 -379 55z"/>
<path d="M4092 1140 c0 -14 2 -19 5 -12 2 6 2 18 0 25 -3 6 -5 1 -5 -13z"/>
</g>
</svg>
